<svg xmlns="http://www.w3.org/2000/svg" xmlns:xlink="http://www.w3.org/1999/xlink" viewBox="0 0 785 2717.09"><defs><style>.cls-1,.cls-13{fill:#fff;}.Supply,.cls-2{stroke:#ed1e79;}.Demand,.Supply,.cls-10,.cls-11,.cls-13,.cls-2,.cls-3,.cls-4,.cls-40,.cls-42,.cls-46,.cls-47,.cls-5,.cls-6,.cls-65,.cls-66,.cls-67,.cls-68,.cls-7,.cls-73,.cls-74,.cls-75,.cls-76,.cls-77,.cls-8,.cls-80,.cls-81,.cls-82,.cls-83,.cls-84,.cls-9{stroke-miterlimit:10;}.Demand,.Supply,.cls-2{stroke-width:3px;}.cls-2{fill:url(#linear-gradient);}.Demand,.Supply,.cls-10,.cls-11,.cls-3,.cls-4,.cls-40,.cls-42,.cls-46,.cls-47,.cls-5,.cls-6,.cls-65,.cls-66,.cls-67,.cls-68,.cls-7,.cls-73,.cls-74,.cls-75,.cls-76,.cls-77,.cls-8,.cls-80,.cls-81,.cls-82,.cls-83,.cls-84,.cls-9{fill:none;}.Demand,.cls-42,.cls-46{stroke:#009245;}.cls-3,.cls-4,.cls-5,.cls-6,.cls-65,.cls-66,.cls-67,.cls-7,.cls-73,.cls-74,.cls-75,.cls-76,.cls-8,.cls-80,.cls-81,.cls-82,.cls-83{stroke:#000;}.cls-4{stroke-dasharray:4.01 4.01;}.cls-5{stroke-dasharray:4.04 4.04;}.cls-6{stroke-dasharray:4.02 4.02;}.cls-7{stroke-dasharray:4.01 4.01;}.cls-8{stroke-dasharray:3.99 3.99;}.cls-10,.cls-47,.cls-68,.cls-77,.cls-84,.cls-9{stroke:#ff1d25;}.cls-10{stroke-dasharray:3.97 3.97;}.cls-11{stroke:#231f20;}.cls-12,.cls-27,.cls-33{fill:#231f20;}.cls-13{stroke:#b3b3b3;}.cls-14,.cls-15{font-size:24px;}.cls-14,.cls-15,.cls-16,.cls-48,.cls-64,.cls-69,.cls-72,.cls-85{font-family:Roboto-Regular, Roboto;}.cls-14{letter-spacing:-0.02em;}.cls-16{font-size:27.42px;}.cls-17,.cls-70{font-size:40px;}.cls-17,.cls-27,.cls-33,.cls-70{font-family:Verdana-Bold, Verdana;font-weight:700;}.cls-17{letter-spacing:0em;}.cls-18{letter-spacing:0em;}.cls-19{letter-spacing:0.02em;}.cls-20{letter-spacing:0.01em;}.cls-21{letter-spacing:0.02em;}.cls-22{letter-spacing:0.01em;}.cls-23{letter-spacing:0.02em;}.cls-24{letter-spacing:0.02em;}.cls-25{letter-spacing:-0.01em;}.cls-26{letter-spacing:-0.01em;}.cls-27,.cls-33{font-size:30px;}.cls-27{letter-spacing:0.01em;}.cls-28{letter-spacing:0em;}.cls-29{letter-spacing:0.01em;}.cls-30{letter-spacing:0.01em;}.cls-31{letter-spacing:0.02em;}.cls-32{letter-spacing:-0.01em;}.cls-33{letter-spacing:0.01em;}.cls-34{letter-spacing:0.01em;}.cls-35{letter-spacing:0em;}.cls-36{letter-spacing:-0.01em;}.cls-37{letter-spacing:0.01em;}.cls-38{fill:#ff0;}.cls-39{font-size:32px;font-family:TimesNewRomanPSMT, Times New Roman;}.cls-40{stroke:red;}.cls-41,.cls-64{fill:red;}.cls-43,.cls-48{fill:#009245;}.cls-44,.cls-45{font-size:45px;font-family:Georgia, Georgia;}.cls-45{letter-spacing:0em;}.cls-46,.cls-47{stroke-width:4px;}.cls-48,.cls-64{font-size:12px;}.cls-48{letter-spacing:-0.04em;}.cls-49{letter-spacing:0.03em;}.cls-50{letter-spacing:0.03em;}.cls-51{letter-spacing:-0.03em;}.cls-52{letter-spacing:-0.01em;}.cls-53{letter-spacing:-0.03em;}.cls-54{letter-spacing:-0.02em;}.cls-55{letter-spacing:0em;}.cls-56{letter-spacing:-0.01em;}.cls-57{letter-spacing:0.04em;}.cls-58{letter-spacing:0em;}.cls-59{letter-spacing:-0.02em;}.cls-60{letter-spacing:0.03em;}.cls-61{letter-spacing:-0.02em;}.cls-62{letter-spacing:0.01em;}.cls-63{letter-spacing:0.02em;}.cls-64{letter-spacing:-0.01em;}.cls-65{stroke-dasharray:4.06 4.06;}.cls-66{stroke-dasharray:4.01 4.01;}.cls-67{stroke-dasharray:4.06 4.06;}.cls-68{stroke-dasharray:3.98 3.98;}.cls-69{font-size:25.24px;}.cls-70{letter-spacing:0.01em;}.cls-71{letter-spacing:-0.02em;}.cls-72{font-size:21px;}.cls-73{stroke-dasharray:3.99 3.99;}.cls-74{stroke-dasharray:3.97 3.97;}.cls-75{stroke-dasharray:4.01 4.01;}.cls-76{stroke-dasharray:3.99 3.99;}.cls-77{stroke-dasharray:4.01 4.01;}.cls-78{letter-spacing:-0.02em;}.cls-79{letter-spacing:0.01em;}.cls-80{stroke-dasharray:3.98 3.98;}.cls-81{stroke-dasharray:4.05 4.05;}.cls-82{stroke-dasharray:3.96 3.96;}.cls-83,.cls-84{stroke-dasharray:4.05 4.05;}.cls-85{font-size:18px;}</style><linearGradient id="linear-gradient" x1="192.22" y1="2374.65" x2="629.55" y2="2374.65" gradientUnits="userSpaceOnUse"><stop offset="0" stop-color="#fff"/><stop offset="1"/></linearGradient></defs><title>tax-incidence-elasticity-effect</title><g id="tax-incidence-elasticity-effects"><g id="_4_elasticity-affects-tax-incidence_copy_3" data-name="4 elasticity-affects-tax-incidence copy 3"><rect class="cls-1" x="6" y="2065.91" width="779" height="651.18" rx="20" ry="20"/><g id="Line-Demand-Supply_copy_4" data-name="Line-Demand-Supply copy 4"><line class="cls-2" x1="192.22" y1="2454.23" x2="629.55" y2="2295.06"/><line class="Supply" x1="215.65" y1="2517.32" x2="663.68" y2="2354.25"/><line class="Demand" x1="248.62" y1="2214.47" x2="576.04" y2="2541.89"/></g><g id="Dotted_Liines_copy_4" data-name="Dotted Liines copy 4"><line class="cls-3" x1="128" y1="1729.5" x2="130" y2="1729.5"/><line class="cls-4" x1="134.01" y1="1729.5" x2="444.5" y2="1729.5"/><line class="cls-3" x1="446.5" y1="1729.5" x2="448.5" y2="1729.5"/><line class="cls-3" x1="461.79" y1="2674.5" x2="461.79" y2="2672.5"/><line class="cls-5" x1="461.79" y1="2668.46" x2="461.79" y2="2436.12"/><line class="cls-3" x1="461.79" y1="2434.1" x2="461.79" y2="2432.1"/><line class="cls-3" x1="409.87" y1="2674.5" x2="409.87" y2="2672.5"/><line class="cls-6" x1="409.87" y1="2668.48" x2="409.87" y2="2381.01"/><line class="cls-3" x1="409.87" y1="2379" x2="409.87" y2="2377"/><line class="cls-3" x1="133.5" y1="2374.5" x2="135.5" y2="2374.5"/><line class="cls-7" x1="139.51" y1="2374.5" x2="402.49" y2="2374.5"/><line class="cls-3" x1="404.5" y1="2374.5" x2="406.5" y2="2374.5"/><line class="cls-3" x1="134" y1="2428.5" x2="136" y2="2428.5"/><line class="cls-8" x1="139.99" y1="2428.5" x2="457.5" y2="2428.5"/><line class="cls-3" x1="459.5" y1="2428.5" x2="461.5" y2="2428.5"/><line class="cls-9" x1="135.5" y1="2447.53" x2="137.5" y2="2447.53"/><line class="cls-10" x1="141.47" y1="2447.53" x2="401.59" y2="2447.53"/><line class="cls-9" x1="403.57" y1="2447.53" x2="405.57" y2="2447.53"/></g><line class="cls-11" x1="133.55" y1="2684.72" x2="133.55" y2="2100.74"/><path class="cls-12" d="M133.55,2094.7a30.22,30.22,0,0,0,4.76,8.55l-4.76-1.72-4.75,1.72A30.2,30.2,0,0,0,133.55,2094.7Z"/><line class="cls-11" x1="128.29" y1="2675.72" x2="767.17" y2="2675.72"/><path class="cls-12" d="M773.2,2675.72a30.22,30.22,0,0,0-8.55,4.76l1.72-4.76-1.72-4.75A30.19,30.19,0,0,0,773.2,2675.72Z"/><g id="Gray_Dots_copy_4" data-name="Gray Dots copy 4"><ellipse class="cls-13" cx="461.92" cy="2428.96" rx="1.77" ry="1.96"/><ellipse class="cls-13" cx="409.72" cy="2447.72" rx="2.28" ry="2.22"/><ellipse class="cls-13" cx="408.97" cy="2373.95" rx="2.03" ry="1.95"/></g><text class="cls-14" transform="translate(100 2378.33) scale(0.93 1)">P</text><text class="cls-15" transform="translate(113.72 2386.33) scale(0.54 0.58)">t</text><text class="cls-15" transform="translate(400.17 2698.97)">Q</text><text class="cls-15" transform="translate(416.67 2706.96) scale(0.58)">t</text><text class="cls-15" transform="translate(453.91 2700.05)">Q</text><text class="cls-16" transform="translate(100 2456.33)">P</text><text class="cls-17" transform="translate(300.5 2106.51) scale(0.58)">E<tspan class="cls-18" x="27.44" y="0">l</tspan><tspan class="cls-19" x="41.17" y="0">a</tspan><tspan class="cls-20" x="68.61" y="0">s</tspan><tspan class="cls-21" x="92.62" y="0">t</tspan><tspan class="cls-18" x="111.49" y="0">i</tspan><tspan class="cls-22" x="125.21" y="0">c</tspan><tspan class="cls-18" x="149.23" y="0"> </tspan><tspan class="cls-23" x="162.95" y="0">S</tspan><tspan class="cls-24" x="192.11" y="0">u</tspan><tspan class="cls-25" x="221.27" y="0">pp</tspan><tspan class="cls-18" x="276.16" y="0">l</tspan><tspan class="cls-26" x="289.88" y="0">y</tspan></text><text class="cls-27" transform="translate(576.2 2703.66) scale(0.93 1)">Q<tspan class="cls-28" x="25.73" y="0">u</tspan><tspan class="cls-29" x="47.17" y="0">a</tspan><tspan class="cls-28" x="67.54" y="0">n</tspan><tspan class="cls-30" x="88.98" y="0">t</tspan><tspan class="cls-31" x="102.91" y="0">i</tspan><tspan class="cls-30" x="113.64" y="0">t</tspan><tspan class="cls-32" x="127.57" y="0">y</tspan></text><text class="cls-33" transform="matrix(0.01, -0.99, 1, 0.01, 118.75, 2230)">P<tspan class="cls-34" x="22.27" y="0">r</tspan><tspan class="cls-35" x="37.45" y="0">i</tspan><tspan class="cls-36" x="47.57" y="0">c</tspan><tspan class="cls-37" x="64.78" y="0">e</tspan></text><rect class="cls-38" x="83.45" y="2086" width="32" height="32"/><text class="cls-39" transform="translate(91.07 2111.5) scale(1.1 1)">4</text><g id="Arrow"><line class="cls-3" x1="465.5" y1="2418.8" x2="427.57" y2="2380.87"/><polygon points="432.18 2380.24 428.45 2381.74 426.94 2385.47 423.35 2376.65 432.18 2380.24"/></g><g id="Arrow-2" data-name="Arrow"><line class="cls-40" x1="448.5" y1="2690.16" x2="427.47" y2="2690.16"/><polygon class="cls-41" points="430.28 2686.45 428.7 2690.16 430.28 2693.86 421.5 2690.16 430.28 2686.45"/></g><g id="Arrow-3" data-name="Arrow"><line class="cls-42" x1="107.5" y1="2424.5" x2="107.5" y2="2389.47"/><polygon class="cls-43" points="111.2 2392.28 107.5 2390.7 103.8 2392.28 107.5 2383.5 111.2 2392.28"/></g><text class="cls-44" transform="translate(211.78 2215.83)">D</text><text class="cls-44" transform="translate(674.78 2360.83)">S</text><text class="cls-44" transform="matrix(1, 0.01, -0.01, 1, 639.97, 2298.98)">S</text><text class="cls-45" transform="translate(665.06 2314.22) rotate(0.57) scale(0.58)">t</text><g id="TI_Legend_copy_4" data-name="TI Legend copy 4"><line class="cls-46" x1="92" y1="2375" x2="92" y2="2428"/><line class="cls-47" x1="92" y1="2446" x2="92" y2="2427"/><text class="cls-48" transform="translate(47.33 2383.28)">B<tspan class="cls-49" x="7" y="0">u</tspan><tspan class="cls-50" x="14" y="0">y</tspan><tspan class="cls-51" x="20" y="0">e</tspan><tspan class="cls-52" x="26" y="0">r</tspan><tspan class="cls-53" x="30" y="0">’</tspan><tspan class="cls-54" x="32" y="0">s</tspan><tspan class="cls-55" x="38" y="0"> </tspan><tspan class="cls-56"><tspan x="18" y="14.4">T</tspan><tspan class="cls-57" x="25" y="14.4">a</tspan><tspan class="cls-58" x="32" y="14.4">x</tspan></tspan><tspan class="cls-59"><tspan x="-13" y="28.8">I</tspan><tspan class="cls-60" x="-10" y="28.8">n</tspan><tspan class="cls-61" x="-3" y="28.8">c</tspan><tspan class="cls-62" x="3" y="28.8">i</tspan><tspan class="cls-63" x="6" y="28.8">d</tspan><tspan class="cls-51" x="13" y="28.8">e</tspan><tspan class="cls-60" x="19" y="28.8">n</tspan><tspan class="cls-61" x="26" y="28.8">c</tspan><tspan class="cls-51" x="32" y="28.8">e</tspan></tspan></text><text class="cls-64" transform="translate(48 2439)">S<tspan class="cls-51" x="7" y="0">e</tspan><tspan class="cls-62" x="13" y="0">ll</tspan><tspan class="cls-51" x="19" y="0">e</tspan><tspan class="cls-52" x="25" y="0">r</tspan><tspan class="cls-53" x="29" y="0">’</tspan><tspan class="cls-54" x="31" y="0">s</tspan><tspan class="cls-56"><tspan x="-37" y="14.4">T</tspan><tspan class="cls-57" x="-30" y="14.4">a</tspan><tspan class="cls-58" x="-23" y="14.4">x</tspan><tspan class="cls-55" x="-17" y="14.4"> </tspan><tspan class="cls-59" x="-14" y="14.4">I</tspan><tspan class="cls-60" x="-11" y="14.4">n</tspan><tspan class="cls-61" x="-4" y="14.4">c</tspan><tspan class="cls-62" x="2" y="14.4">i</tspan><tspan class="cls-63" x="5" y="14.4">d</tspan><tspan class="cls-51" x="12" y="14.4">e</tspan><tspan class="cls-60" x="18" y="14.4">n</tspan><tspan class="cls-61" x="25" y="14.4">c</tspan><tspan class="cls-51" x="31" y="14.4">e</tspan></tspan></text></g></g><g id="_3_elasticity-affects-tax-incidence_copy_4" data-name="3 elasticity-affects-tax-incidence copy 4"><rect class="cls-1" x="6" y="1406.16" width="776" height="648.67" rx="20" ry="20"/><g id="Line-Demand-Supply_copy_5" data-name="Line-Demand-Supply copy 5"><line class="Supply" x1="274.3" y1="1967.31" x2="433.47" y2="1529.98"/><line class="Supply" x1="358.13" y1="1985.8" x2="521.2" y2="1537.77"/><line class="Demand" x1="223.82" y1="1600.41" x2="624.83" y2="1831.94"/></g><g id="Dotted_Liines_copy_5" data-name="Dotted Liines copy 5"><line class="cls-3" x1="128" y1="1729.5" x2="130" y2="1729.5"/><line class="cls-4" x1="134.01" y1="1729.5" x2="444.5" y2="1729.5"/><line class="cls-3" x1="446.5" y1="1729.5" x2="448.5" y2="1729.5"/><line class="cls-3" x1="450.86" y1="2009.5" x2="450.86" y2="2007.5"/><line class="cls-65" x1="450.86" y1="2003.44" x2="450.86" y2="1737.75"/><line class="cls-3" x1="450.86" y1="1735.73" x2="450.86" y2="1733.73"/><line class="cls-3" x1="374.82" y1="2009.73" x2="374.82" y2="2007.73"/><line class="cls-66" x1="374.82" y1="2003.72" x2="374.82" y2="1693"/><line class="cls-3" x1="374.82" y1="1691" x2="374.82" y2="1689"/><line class="cls-3" x1="128" y1="1689.5" x2="130" y2="1689.5"/><line class="cls-67" x1="134.06" y1="1689.5" x2="367.47" y2="1689.5"/><line class="cls-3" x1="369.5" y1="1689.5" x2="371.5" y2="1689.5"/><line class="cls-9" x1="127" y1="1943.5" x2="129" y2="1943.5"/><line class="cls-68" x1="132.98" y1="1943.5" x2="369.93" y2="1943.5"/><line class="cls-9" x1="371.92" y1="1943.5" x2="373.92" y2="1943.5"/></g><line class="cls-11" x1="127.55" y1="2010.72" x2="127.55" y2="1426.74"/><path class="cls-12" d="M127.55,1420.7a30.22,30.22,0,0,0,4.76,8.55l-4.76-1.72-4.75,1.72A30.2,30.2,0,0,0,127.55,1420.7Z"/><line class="cls-11" x1="128.29" y1="2010.72" x2="767.17" y2="2010.72"/><path class="cls-12" d="M773.2,2010.72a30.22,30.22,0,0,0-8.55,4.76l1.72-4.76-1.72-4.75A30.19,30.19,0,0,0,773.2,2010.72Z"/><g id="Gray_Dots_copy_5" data-name="Gray Dots copy 5"><ellipse class="cls-13" cx="451" cy="1730.2" rx="1.99" ry="2.2"/><ellipse class="cls-13" cx="374.95" cy="1942.79" rx="2.05" ry="1.95"/><ellipse class="cls-13" cx="375.97" cy="1688.95" rx="2.03" ry="1.95"/></g><text class="cls-14" transform="translate(100 1692.33) scale(0.93 1)">P</text><text class="cls-15" transform="translate(113.72 1700.33) scale(0.54 0.58)">t</text><text class="cls-69" transform="translate(364.46 2030.59)">Q</text><text class="cls-69" transform="translate(381.81 2038.99) scale(0.58)">t</text><text class="cls-15" transform="translate(442 2031.33)">Q</text><text class="cls-15" transform="translate(100 1736.33)">P</text><text class="cls-70" transform="translate(286 1441.51) scale(0.58)">I<tspan class="cls-24" x="22.3" y="0">n</tspan><tspan class="cls-71" x="51.46" y="0">e</tspan><tspan class="cls-18" x="77.19" y="0">l</tspan><tspan class="cls-19" x="90.91" y="0">a</tspan><tspan class="cls-20" x="118.35" y="0">s</tspan><tspan class="cls-21" x="142.37" y="0">t</tspan><tspan class="cls-18" x="161.23" y="0">i</tspan><tspan class="cls-22" x="174.96" y="0">c</tspan><tspan class="cls-18" x="198.97" y="0"> </tspan><tspan class="cls-23" x="212.69" y="0">S</tspan><tspan class="cls-24" x="241.85" y="0">u</tspan><tspan class="cls-25" x="271.01" y="0">pp</tspan><tspan class="cls-18" x="325.9" y="0">l</tspan><tspan class="cls-26" x="339.62" y="0">y</tspan></text><text class="cls-27" transform="translate(576.2 2038.66) scale(0.93 1)">Q<tspan class="cls-28" x="25.73" y="0">u</tspan><tspan class="cls-29" x="47.17" y="0">a</tspan><tspan class="cls-28" x="67.54" y="0">n</tspan><tspan class="cls-30" x="88.98" y="0">t</tspan><tspan class="cls-31" x="102.91" y="0">i</tspan><tspan class="cls-30" x="113.64" y="0">t</tspan><tspan class="cls-32" x="127.57" y="0">y</tspan></text><text class="cls-33" transform="matrix(0.01, -0.99, 1, 0.01, 118.75, 1565)">P<tspan class="cls-34" x="22.27" y="0">r</tspan><tspan class="cls-35" x="37.45" y="0">i</tspan><tspan class="cls-36" x="47.57" y="0">c</tspan><tspan class="cls-37" x="64.78" y="0">e</tspan></text><rect class="cls-38" x="83.45" y="1421" width="32" height="32"/><text class="cls-39" transform="translate(91.07 1446.5) scale(1.1 1)">3</text><g id="Arrow-4" data-name="Arrow"><line class="cls-3" x1="443.81" y1="1714.83" x2="389.49" y2="1683.47"/><polygon points="393.78 1681.67 390.56 1684.09 390.08 1688.08 384.32 1680.48 393.78 1681.67"/></g><g id="Arrow-5" data-name="Arrow"><line class="cls-40" x1="435.5" y1="2022.16" x2="392.61" y2="2022.16"/><polygon class="cls-41" points="395.41 2018.45 393.84 2022.16 395.41 2025.86 386.63 2022.16 395.41 2018.45"/></g><g id="Arrow-6" data-name="Arrow"><line class="cls-42" x1="106.24" y1="1717.5" x2="106.24" y2="1700.47"/><polygon class="cls-43" points="109.94 1703.28 106.24 1701.7 102.53 1703.28 106.24 1694.5 109.94 1703.28"/></g><text class="cls-44" transform="translate(182.78 1605.83)">D</text><text class="cls-44" transform="translate(513.78 1526.83)">S</text><text class="cls-44" transform="matrix(1, 0.01, -0.01, 1, 430.97, 1515.98)">S</text><text class="cls-45" transform="translate(456.06 1531.22) rotate(0.57) scale(0.58)">t</text><g id="TI_Legend_copy_5" data-name="TI Legend copy 5"><line class="cls-46" x1="92" y1="1688" x2="92" y2="1729"/><line class="cls-47" x1="92" y1="1942" x2="92" y2="1729"/><text class="cls-48" transform="translate(47.33 1694.28)">B<tspan class="cls-49" x="7" y="0">u</tspan><tspan class="cls-50" x="14" y="0">y</tspan><tspan class="cls-51" x="20" y="0">e</tspan><tspan class="cls-52" x="26" y="0">r</tspan><tspan class="cls-53" x="30" y="0">’</tspan><tspan class="cls-54" x="32" y="0">s</tspan><tspan class="cls-55" x="38" y="0"> </tspan><tspan class="cls-56"><tspan x="18" y="14.4">T</tspan><tspan class="cls-57" x="25" y="14.4">a</tspan><tspan class="cls-58" x="32" y="14.4">x</tspan></tspan><tspan class="cls-59"><tspan x="-13" y="28.8">I</tspan><tspan class="cls-60" x="-10" y="28.8">n</tspan><tspan class="cls-61" x="-3" y="28.8">c</tspan><tspan class="cls-62" x="3" y="28.8">i</tspan><tspan class="cls-63" x="6" y="28.8">d</tspan><tspan class="cls-51" x="13" y="28.8">e</tspan><tspan class="cls-60" x="19" y="28.8">n</tspan><tspan class="cls-61" x="26" y="28.8">c</tspan><tspan class="cls-51" x="32" y="28.8">e</tspan></tspan></text><text class="cls-64" transform="translate(48 1760)">S<tspan class="cls-51" x="7" y="0">e</tspan><tspan class="cls-62" x="13" y="0">ll</tspan><tspan class="cls-51" x="19" y="0">e</tspan><tspan class="cls-52" x="25" y="0">r</tspan><tspan class="cls-53" x="29" y="0">’</tspan><tspan class="cls-54" x="31" y="0">s</tspan><tspan class="cls-56"><tspan x="-37" y="14.4">T</tspan><tspan class="cls-57" x="-30" y="14.4">a</tspan><tspan class="cls-58" x="-23" y="14.4">x</tspan><tspan class="cls-55" x="-17" y="14.4"> </tspan><tspan class="cls-59" x="-14" y="14.4">I</tspan><tspan class="cls-60" x="-11" y="14.4">n</tspan><tspan class="cls-61" x="-4" y="14.4">c</tspan><tspan class="cls-62" x="2" y="14.4">i</tspan><tspan class="cls-63" x="5" y="14.4">d</tspan><tspan class="cls-51" x="12" y="14.4">e</tspan><tspan class="cls-60" x="18" y="14.4">n</tspan><tspan class="cls-61" x="25" y="14.4">c</tspan><tspan class="cls-51" x="31" y="14.4">e</tspan></tspan></text></g></g><g id="_2_elasticity-affects-tax-incidence_copy_2" data-name="2 elasticity-affects-tax-incidence copy 2"><text class="cls-72" transform="translate(227.51 753)">Buyers and Sellers share equal tax burden.</text><rect class="cls-1" y="690" width="784" height="647" rx="20" ry="20"/><g id="Line-Demand-Supply_copy_2" data-name="Line-Demand-Supply copy 2"><line class="Supply" x1="161.5" y1="1112.5" x2="616.5" y2="824.5"/><line class="Supply" x1="199.5" y1="1182.5" x2="654.5" y2="894.5"/><line class="Demand" x1="193.59" y1="944.74" x2="645.06" y2="1047.61"/></g><g id="Dotted_Liines_copy_2" data-name="Dotted Liines copy 2"><line class="cls-3" x1="123" y1="1009.5" x2="125" y2="1009.5"/><line class="cls-73" x1="128.99" y1="1009.5" x2="470.5" y2="1009.5"/><line class="cls-3" x1="472.5" y1="1009.5" x2="474.5" y2="1009.5"/><line class="cls-3" x1="474.85" y1="1289.5" x2="474.85" y2="1287.5"/><line class="cls-74" x1="474.85" y1="1283.53" x2="474.85" y2="1015.74"/><line class="cls-3" x1="474.85" y1="1013.76" x2="474.85" y2="1011.76"/><line class="cls-3" x1="363.85" y1="1291.5" x2="363.85" y2="1289.5"/><line class="cls-75" x1="363.85" y1="1285.49" x2="363.85" y2="990.51"/><line class="cls-3" x1="363.85" y1="988.5" x2="363.85" y2="986.5"/><line class="cls-3" x1="123" y1="984.5" x2="125" y2="984.5"/><line class="cls-76" x1="128.99" y1="984.5" x2="358.5" y2="984.5"/><line class="cls-3" x1="360.5" y1="984.5" x2="362.5" y2="984.5"/><line class="cls-9" x1="122" y1="1078.5" x2="124" y2="1078.5"/><line class="cls-77" x1="128.01" y1="1078.5" x2="358.5" y2="1078.5"/><line class="cls-9" x1="360.5" y1="1078.5" x2="362.5" y2="1078.5"/></g><line class="cls-11" x1="122.55" y1="1290.72" x2="122.55" y2="706.74"/><path class="cls-12" d="M122.55,700.7a30.22,30.22,0,0,0,4.76,8.55l-4.76-1.72-4.75,1.72A30.2,30.2,0,0,0,122.55,700.7Z"/><line class="cls-11" x1="123.29" y1="1290.72" x2="762.17" y2="1290.72"/><path class="cls-12" d="M768.2,1290.72a30.22,30.22,0,0,0-8.55,4.76l1.72-4.76-1.72-4.75A30.2,30.2,0,0,0,768.2,1290.72Z"/><g id="Gray_Dots_copy_2" data-name="Gray Dots copy 2"><ellipse class="cls-13" cx="475" cy="1009.21" rx="2" ry="2.21"/><ellipse class="cls-13" cx="363.5" cy="1078.79" rx="2" ry="1.95"/><ellipse class="cls-13" cx="364" cy="982.95" rx="2" ry="1.95"/></g><text class="cls-15" transform="translate(95 988.33)">P</text><text class="cls-15" transform="translate(110.14 996.33) scale(0.58)">t</text><text class="cls-15" transform="translate(353 1311.33)">Q</text><text class="cls-15" transform="translate(369.5 1319.33) scale(0.58)">t</text><text class="cls-15" transform="translate(467 1311.33)">Q</text><text class="cls-15" transform="translate(95 1016.33)">P</text><text class="cls-17" transform="translate(300 721.51) scale(0.58)">E<tspan class="cls-18" x="27.44" y="0">l</tspan><tspan class="cls-19" x="41.17" y="0">a</tspan><tspan class="cls-20" x="68.61" y="0">s</tspan><tspan class="cls-21" x="92.62" y="0">t</tspan><tspan class="cls-18" x="111.49" y="0">i</tspan><tspan class="cls-22" x="125.21" y="0">c</tspan><tspan class="cls-18" x="149.23" y="0"> </tspan><tspan class="cls-78" x="162.95" y="0">D</tspan><tspan class="cls-71" x="195.54" y="0">e</tspan><tspan class="cls-79" x="221.27" y="0">m</tspan><tspan class="cls-19" x="264.15" y="0">a</tspan><tspan class="cls-24" x="291.6" y="0">n</tspan><tspan class="cls-25" x="320.75" y="0">d</tspan></text><text class="cls-27" transform="translate(155.29 1318.66) scale(0.93 1)">Q<tspan class="cls-28" x="25.73" y="0">u</tspan><tspan class="cls-29" x="47.17" y="0">a</tspan><tspan class="cls-28" x="67.54" y="0">n</tspan><tspan class="cls-30" x="88.98" y="0">t</tspan><tspan class="cls-31" x="102.91" y="0">i</tspan><tspan class="cls-30" x="113.64" y="0">t</tspan><tspan class="cls-32" x="127.57" y="0">y</tspan></text><text class="cls-33" transform="matrix(0.01, -0.99, 1, 0.01, 113.75, 1258.61)">P<tspan class="cls-34" x="22.27" y="0">r</tspan><tspan class="cls-35" x="37.45" y="0">i</tspan><tspan class="cls-36" x="47.57" y="0">c</tspan><tspan class="cls-37" x="64.78" y="0">e</tspan></text><rect class="cls-38" x="78.45" y="701" width="32" height="32"/><text class="cls-39" transform="translate(86.07 726.5) scale(1.1 1)">2</text><g id="Arrow-7" data-name="Arrow"><line class="cls-3" x1="464.65" y1="998.62" x2="389.64" y2="981.3"/><polygon points="393.21 978.32 390.85 981.58 391.55 985.54 383.83 979.96 393.21 978.32"/></g><g id="Arrow-8" data-name="Arrow"><line class="cls-40" x1="459.5" y1="1305.16" x2="382.61" y2="1305.16"/><polygon class="cls-41" points="385.41 1301.45 383.84 1305.16 385.41 1308.86 376.63 1305.16 385.41 1301.45"/></g><g id="Arrow-9" data-name="Arrow"><line class="cls-42" x1="94.24" y1="1007.5" x2="94.24" y2="990.47"/><polygon class="cls-43" points="97.94 993.28 94.24 991.71 90.53 993.28 94.24 984.5 97.94 993.28"/></g><text class="cls-44" transform="translate(652.78 1066.83)">D</text><text class="cls-44" transform="translate(659.78 903.83)">S</text><text class="cls-44" transform="translate(622.78 828.83)">S</text><text class="cls-45" transform="translate(648.02 843.82) scale(0.58)">t</text><g id="TI_Legend_copy_2" data-name="TI Legend copy 2"><line class="cls-46" x1="87" y1="985" x2="87" y2="1009"/><line class="cls-47" x1="87" y1="1077" x2="87" y2="1009"/><text class="cls-48" transform="translate(19.33 994.28)">B<tspan class="cls-49" x="7" y="0">u</tspan><tspan class="cls-50" x="14" y="0">y</tspan><tspan class="cls-51" x="20" y="0">e</tspan><tspan class="cls-52" x="26" y="0">r</tspan><tspan class="cls-53" x="30" y="0">’</tspan><tspan class="cls-54" x="32" y="0">s</tspan><tspan class="cls-55" x="38" y="0"> </tspan><tspan class="cls-56" x="41" y="0">T</tspan><tspan class="cls-57" x="48" y="0">a</tspan><tspan class="cls-58" x="55" y="0">x</tspan><tspan class="cls-59"><tspan x="10" y="14.4">I</tspan><tspan class="cls-60" x="13" y="14.4">n</tspan><tspan class="cls-61" x="20" y="14.4">c</tspan><tspan class="cls-62" x="26" y="14.4">i</tspan><tspan class="cls-63" x="29" y="14.4">d</tspan><tspan class="cls-51" x="36" y="14.4">e</tspan><tspan class="cls-60" x="42" y="14.4">n</tspan><tspan class="cls-61" x="49" y="14.4">c</tspan><tspan class="cls-51" x="55" y="14.4">e</tspan></tspan></text><text class="cls-64" transform="translate(43 1040)">S<tspan class="cls-51" x="7" y="0">e</tspan><tspan class="cls-62" x="13" y="0">ll</tspan><tspan class="cls-51" x="19" y="0">e</tspan><tspan class="cls-52" x="25" y="0">r</tspan><tspan class="cls-53" x="29" y="0">’</tspan><tspan class="cls-54" x="31" y="0">s</tspan><tspan class="cls-56"><tspan x="-37" y="14.4">T</tspan><tspan class="cls-57" x="-30" y="14.4">a</tspan><tspan class="cls-58" x="-23" y="14.4">x</tspan><tspan class="cls-55" x="-17" y="14.4"> </tspan><tspan class="cls-59" x="-14" y="14.4">I</tspan><tspan class="cls-60" x="-11" y="14.4">n</tspan><tspan class="cls-61" x="-4" y="14.4">c</tspan><tspan class="cls-62" x="2" y="14.4">i</tspan><tspan class="cls-63" x="5" y="14.4">d</tspan><tspan class="cls-51" x="12" y="14.4">e</tspan><tspan class="cls-60" x="18" y="14.4">n</tspan><tspan class="cls-61" x="25" y="14.4">c</tspan><tspan class="cls-51" x="31" y="14.4">e</tspan></tspan></text></g></g><g id="_1_elasticity-affects-tax-incidence_copy_3" data-name="1 elasticity-affects-tax-incidence copy 3"><text class="cls-72" transform="translate(227.51 63)">Buyers and Sellers share equal tax burden.</text><rect class="cls-1" width="783" height="647" rx="20" ry="20"/><g id="Line-Demand-Supply_copy_3" data-name="Line-Demand-Supply copy 3"><line class="Supply" x1="161.5" y1="422.5" x2="616.5" y2="134.5"/><line class="Supply" x1="199.5" y1="492.5" x2="654.5" y2="204.5"/><line class="Demand" x1="296.48" y1="113.77" x2="511.52" y2="486.23"/></g><g id="Dotted_Liines_copy_3" data-name="Dotted Liines copy 3"><line class="cls-3" x1="123" y1="346.5" x2="125" y2="346.5"/><line class="cls-80" x1="128.98" y1="346.5" x2="421.51" y2="346.5"/><line class="cls-3" x1="423.5" y1="346.5" x2="425.5" y2="346.5"/><line class="cls-3" x1="428.85" y1="599.5" x2="428.85" y2="597.5"/><line class="cls-81" x1="428.85" y1="593.45" x2="428.85" y2="352.52"/><line class="cls-3" x1="428.85" y1="350.49" x2="428.85" y2="348.49"/><line class="cls-3" x1="390.85" y1="601.5" x2="390.85" y2="599.5"/><line class="cls-82" x1="390.85" y1="595.54" x2="390.85" y2="280.48"/><line class="cls-3" x1="390.85" y1="278.5" x2="390.85" y2="276.5"/><line class="cls-3" x1="123" y1="275.5" x2="125" y2="275.5"/><line class="cls-83" x1="129.05" y1="275.5" x2="386.47" y2="275.5"/><line class="cls-3" x1="388.5" y1="275.5" x2="390.5" y2="275.5"/><line class="cls-9" x1="122" y1="371.5" x2="124" y2="371.5"/><line class="cls-84" x1="128.05" y1="371.5" x2="385.47" y2="371.5"/><line class="cls-9" x1="387.5" y1="371.5" x2="389.5" y2="371.5"/></g><line class="cls-11" x1="122.55" y1="600.72" x2="122.55" y2="16.74"/><path class="cls-12" d="M122.55,10.7a30.22,30.22,0,0,0,4.76,8.55l-4.76-1.72-4.75,1.72A30.2,30.2,0,0,0,122.55,10.7Z"/><line class="cls-11" x1="123.29" y1="600.72" x2="762.17" y2="600.72"/><path class="cls-12" d="M768.2,600.72a30.22,30.22,0,0,0-8.55,4.76l1.72-4.76L759.66,596A30.19,30.19,0,0,0,768.2,600.72Z"/><g id="Gray_Dots_copy_3" data-name="Gray Dots copy 3"><circle class="cls-13" cx="429" cy="346" r="2"/><circle class="cls-13" cx="390.5" cy="372.5" r="2"/><circle class="cls-13" cx="391" cy="276" r="2"/></g><text class="cls-15" transform="translate(95 278.33)">P</text><text class="cls-15" transform="translate(110.14 286.33) scale(0.58)">t</text><text class="cls-15" transform="translate(379 621.33)">Q</text><text class="cls-15" transform="translate(395.5 629.33) scale(0.58)">t</text><text class="cls-15" transform="translate(421 621.33)">Q</text><text class="cls-15" transform="translate(95 353.33)">P</text><text class="cls-70" transform="translate(285.5 31.51) scale(0.58)">I<tspan class="cls-24" x="22.3" y="0">n</tspan><tspan class="cls-71" x="51.46" y="0">e</tspan><tspan class="cls-18" x="77.19" y="0">l</tspan><tspan class="cls-19" x="90.91" y="0">a</tspan><tspan class="cls-20" x="118.35" y="0">s</tspan><tspan class="cls-21" x="142.37" y="0">t</tspan><tspan class="cls-18" x="161.23" y="0">i</tspan><tspan class="cls-22" x="174.96" y="0">c</tspan><tspan class="cls-18" x="198.97" y="0"> </tspan><tspan class="cls-78" x="212.69" y="0">D</tspan><tspan class="cls-71" x="245.28" y="0">e</tspan><tspan class="cls-79" x="271.01" y="0">m</tspan><tspan class="cls-19" x="313.89" y="0">a</tspan><tspan class="cls-24" x="341.34" y="0">n</tspan><tspan class="cls-25" x="370.5" y="0">d</tspan></text><text class="cls-27" transform="translate(155.29 628.66) scale(0.93 1)">Q<tspan class="cls-28" x="25.73" y="0">u</tspan><tspan class="cls-29" x="47.17" y="0">a</tspan><tspan class="cls-28" x="67.54" y="0">n</tspan><tspan class="cls-30" x="88.98" y="0">t</tspan><tspan class="cls-31" x="102.91" y="0">i</tspan><tspan class="cls-30" x="113.64" y="0">t</tspan><tspan class="cls-32" x="127.57" y="0">y</tspan></text><text class="cls-33" transform="matrix(0.01, -0.99, 1, 0.01, 113.75, 568.61)">P<tspan class="cls-34" x="22.27" y="0">r</tspan><tspan class="cls-35" x="37.45" y="0">i</tspan><tspan class="cls-36" x="47.57" y="0">c</tspan><tspan class="cls-37" x="64.78" y="0">e</tspan></text><rect class="cls-38" x="78.45" y="11" width="32" height="32"/><text class="cls-39" transform="translate(86.07 36.5) scale(1.1 1)">1</text><line class="cls-3" x1="431.85" y1="331.78" x2="404.77" y2="284.88"/><polygon points="409.38 285.46 405.39 285.95 402.97 289.17 401.79 279.71 409.38 285.46"/><text class="cls-44" transform="translate(273.78 108.83)">D</text><text class="cls-44" transform="translate(659.78 213.83)">S</text><text class="cls-44" transform="translate(622.78 138.83)">S</text><text class="cls-45" transform="translate(648.02 153.82) scale(0.58)">t</text><g id="TI_Legend_copy_3" data-name="TI Legend copy 3"><line class="cls-46" x1="87" y1="276.5" x2="87" y2="347.5"/><line class="cls-47" x1="87" y1="371" x2="87" y2="348"/><text class="cls-48" transform="translate(42.33 292.28)">B<tspan class="cls-49" x="7" y="0">u</tspan><tspan class="cls-50" x="14" y="0">y</tspan><tspan class="cls-51" x="20" y="0">e</tspan><tspan class="cls-52" x="26" y="0">r</tspan><tspan class="cls-53" x="30" y="0">’</tspan><tspan class="cls-54" x="32" y="0">s</tspan><tspan class="cls-56"><tspan x="18" y="14.4">T</tspan><tspan class="cls-57" x="25" y="14.4">a</tspan><tspan class="cls-58" x="32" y="14.4">x</tspan></tspan><tspan class="cls-59"><tspan x="-13" y="28.8">I</tspan><tspan class="cls-60" x="-10" y="28.8">n</tspan><tspan class="cls-61" x="-3" y="28.8">c</tspan><tspan class="cls-62" x="3" y="28.8">i</tspan><tspan class="cls-63" x="6" y="28.8">d</tspan><tspan class="cls-51" x="13" y="28.8">e</tspan><tspan class="cls-60" x="19" y="28.8">n</tspan><tspan class="cls-61" x="26" y="28.8">c</tspan><tspan class="cls-51" x="32" y="28.8">e</tspan></tspan></text><text class="cls-64" transform="translate(43 355)">S<tspan class="cls-51" x="7" y="0">e</tspan><tspan class="cls-62" x="13" y="0">ll</tspan><tspan class="cls-51" x="19" y="0">e</tspan><tspan class="cls-52" x="25" y="0">r</tspan><tspan class="cls-53" x="29" y="0">’</tspan><tspan class="cls-54" x="31" y="0">s</tspan><tspan class="cls-56"><tspan x="-37" y="14.4">T</tspan><tspan class="cls-57" x="-30" y="14.4">a</tspan><tspan class="cls-58" x="-23" y="14.4">x</tspan><tspan class="cls-55" x="-17" y="14.4"> </tspan><tspan class="cls-59" x="-14" y="14.4">I</tspan><tspan class="cls-60" x="-11" y="14.4">n</tspan><tspan class="cls-61" x="-4" y="14.4">c</tspan><tspan class="cls-62" x="2" y="14.4">i</tspan><tspan class="cls-63" x="5" y="14.4">d</tspan><tspan class="cls-51" x="12" y="14.4">e</tspan><tspan class="cls-60" x="18" y="14.4">n</tspan><tspan class="cls-61" x="25" y="14.4">c</tspan><tspan class="cls-51" x="31" y="14.4">e</tspan></tspan></text></g><g id="Arrow-10" data-name="Arrow"><line class="cls-40" x1="428.5" y1="633.81" x2="397.47" y2="633.81"/><polygon class="cls-41" points="400.28 630.11 398.7 633.82 400.28 637.52 391.5 633.82 400.28 630.11"/></g><g id="Arrow-11" data-name="Arrow"><line class="cls-42" x1="102.5" y1="330" x2="102.5" y2="290.47"/><polygon class="cls-43" points="106.2 293.28 102.5 291.7 98.8 293.28 102.5 284.5 106.2 293.28"/></g><text class="cls-85" transform="translate(283.49 1464) scale(0.93 1)">Seller Bears Greater Tax Burden</text><text class="cls-85" transform="translate(283.49 745) scale(0.93 1)">Seller Bears Greater Tax Burden</text><text class="cls-85" transform="translate(283.17 55) scale(0.93 1)">Buyer Bears Greater Tax Burden</text><text class="cls-85" transform="translate(283.17 2129) scale(0.93 1)">Buyer Bears Greater Tax Burden</text></g></g></svg>