<svg id="tax-incidence-buyer-seller-burden" xmlns="http://www.w3.org/2000/svg" viewBox="0 0 716 2005"><defs><style>.cls-1,.cls-11{fill:#fff;}.Demand,.Supply,.cls-2,.cls-3,.cls-4,.cls-45,.cls-46,.cls-49,.cls-5,.cls-50,.cls-6,.cls-7,.cls-8,.cls-9{fill:none;}.Supply{stroke:#ed1e79;}.Demand,.Supply,.cls-11,.cls-2,.cls-3,.cls-4,.cls-45,.cls-46,.cls-49,.cls-5,.cls-50,.cls-6,.cls-7,.cls-8,.cls-9{stroke-miterlimit:10;}.Demand,.Supply{stroke-width:3px;}.cls-2,.cls-3{stroke:red;}.cls-3{stroke-dasharray:4.06 4.06;}.Demand,.cls-50,.cls-6,.cls-7{stroke:#009245;}.cls-4,.cls-46,.cls-49,.cls-5{stroke:#000;}.cls-5{stroke-dasharray:3.96 3.96;}.cls-7{stroke-dasharray:4.05 4.05;}.cls-8{stroke:#666;stroke-dasharray:8;}.cls-45,.cls-9{stroke:#231f20;}.cls-10,.cls-32,.cls-38{fill:#231f20;}.cls-11{stroke:#b3b3b3;}.cls-12{font-size:24px;}.cls-12,.cls-51,.cls-52,.cls-54,.cls-57{font-family:Roboto-Regular, Roboto;}.cls-13,.cls-47,.cls-53{font-size:40px;font-family:Roboto-Bold, Roboto;}.cls-13,.cls-32,.cls-38,.cls-47,.cls-53{font-weight:700;}.cls-13{letter-spacing:-0.01em;}.cls-14{letter-spacing:0em;}.cls-15{letter-spacing:-0.01em;}.cls-16{letter-spacing:0.01em;}.cls-17{letter-spacing:0.01em;}.cls-18,.cls-47{letter-spacing:-0.01em;}.cls-19{letter-spacing:0.02em;}.cls-20{letter-spacing:0em;}.cls-21{letter-spacing:-0.01em;}.cls-22{letter-spacing:-0.01em;}.cls-23{letter-spacing:0.02em;}.cls-24{letter-spacing:-0.01em;}.cls-25{letter-spacing:-0.01em;}.cls-26{letter-spacing:0.01em;}.cls-27{letter-spacing:-0.01em;}.cls-28{letter-spacing:0em;}.cls-29{letter-spacing:-0.01em;}.cls-30{letter-spacing:0.01em;}.cls-31{letter-spacing:-0.06em;}.cls-32,.cls-38{font-size:30px;font-family:Verdana-Bold, Verdana;}.cls-32{letter-spacing:0.01em;}.cls-33{letter-spacing:0em;}.cls-34{letter-spacing:0.01em;}.cls-35{letter-spacing:0.01em;}.cls-36{letter-spacing:0.02em;}.cls-37{letter-spacing:-0.01em;}.cls-38{letter-spacing:0.01em;}.cls-39{letter-spacing:0.01em;}.cls-40{letter-spacing:0em;}.cls-41{letter-spacing:-0.01em;}.cls-42{letter-spacing:0.01em;}.cls-43{fill:#ff0;}.cls-44{font-size:32px;font-family:TimesNewRomanPSMT, Times New Roman;}.cls-45{stroke-width:0.8px;}.cls-46{stroke-dasharray:3.94 3.94;}.cls-48,.cls-53{letter-spacing:0.01em;}.cls-49{stroke-dasharray:4.04 4.04;}.cls-50{stroke-dasharray:4.07 4.07;}.cls-51,.cls-52{font-size:19.14px;}.cls-52{letter-spacing:0em;}.cls-54{font-size:36px;}.cls-55{letter-spacing:-0.02em;}.cls-56{letter-spacing:-0.06em;}.cls-57{font-size:21px;}</style></defs><title>tax-incidence-buyer-seller-burden</title><rect class="cls-1" width="716" height="647" rx="20" ry="20"/><line class="Supply" x1="57" y1="598" x2="576" y2="79"/><line class="cls-2" x1="55.5" y1="380.5" x2="57.5" y2="380.5"/><line class="cls-3" x1="61.56" y1="380.5" x2="270.47" y2="380.5"/><line class="cls-2" x1="272.5" y1="380.5" x2="274.5" y2="380.5"/><line class="Demand" x1="57" y1="44" x2="613.5" y2="600.5"/><line class="cls-4" x1="55.5" y1="320.5" x2="57.5" y2="320.5"/><line class="cls-5" x1="61.46" y1="320.5" x2="328.52" y2="320.5"/><line class="cls-4" x1="330.5" y1="320.5" x2="332.5" y2="320.5"/><line class="cls-6" x1="56" y1="262.5" x2="58" y2="262.5"/><line class="cls-7" x1="62.05" y1="262.5" x2="270.48" y2="262.5"/><line class="cls-6" x1="272.5" y1="262.5" x2="274.5" y2="262.5"/><line class="cls-8" x1="273.5" y1="261.5" x2="273.5" y2="382.5"/><line class="cls-9" x1="55.55" y1="600.72" x2="55.55" y2="16.74"/><path class="cls-10" d="M55.55,10.7a30.22,30.22,0,0,0,4.76,8.55l-4.76-1.72L50.8,19.25A30.2,30.2,0,0,0,55.55,10.7Z"/><line class="cls-9" x1="56.29" y1="600.72" x2="695.17" y2="600.72"/><path class="cls-10" d="M701.2,600.72a30.22,30.22,0,0,0-8.55,4.76l1.72-4.76L692.65,596A30.2,30.2,0,0,0,701.2,600.72Z"/><circle class="cls-11" cx="334" cy="320" r="2"/><circle class="cls-11" cx="274" cy="380" r="2"/><circle class="cls-11" cx="274" cy="262" r="2"/><text class="cls-12" transform="translate(20 264.33)">P</text><text class="cls-12" transform="translate(35.14 272.33) scale(0.58)">b</text><text class="cls-12" transform="translate(20 382.33)">P</text><text class="cls-12" transform="translate(35.14 390.33) scale(0.58)">s</text><text class="cls-12" transform="translate(20 322.33)">P</text><text class="cls-12" transform="translate(35.14 330.33) scale(0.58)">m</text><text class="cls-13" transform="translate(149 31.51) scale(0.58)">U<tspan class="cls-14" x="25.73" y="0">n</tspan><tspan class="cls-15" x="48.03" y="0">i</tspan><tspan class="cls-16" x="58.32" y="0">t</tspan><tspan class="cls-17" x="72.04" y="0"> </tspan><tspan class="cls-18" x="82.33" y="0">E</tspan><tspan class="cls-15" x="104.63" y="0">l</tspan><tspan class="cls-19" x="114.92" y="0">a</tspan><tspan class="cls-20" x="137.22" y="0">s</tspan><tspan class="cls-16" x="157.8" y="0">t</tspan><tspan class="cls-15" x="171.53" y="0">i</tspan><tspan class="cls-21" x="181.82" y="0">c</tspan><tspan class="cls-17" x="202.4" y="0"> </tspan><tspan class="cls-22" x="212.69" y="0">D</tspan><tspan class="cls-23" x="238.42" y="0">e</tspan><tspan class="cls-24" x="260.72" y="0">m</tspan><tspan class="cls-19" x="295.03" y="0">a</tspan><tspan class="cls-14" x="317.32" y="0">n</tspan><tspan class="cls-25" x="339.62" y="0">d</tspan><tspan class="cls-26" x="361.92" y="0">,</tspan><tspan class="cls-17" x="372.21" y="0"> </tspan><tspan x="382.5" y="0">U</tspan><tspan class="cls-14" x="408.23" y="0">n</tspan><tspan class="cls-15" x="430.53" y="0">i</tspan><tspan class="cls-16" x="440.82" y="0">t</tspan><tspan class="cls-17" x="454.55" y="0"> </tspan><tspan class="cls-18" x="464.84" y="0">E</tspan><tspan class="cls-15" x="487.14" y="0">l</tspan><tspan class="cls-19" x="497.43" y="0">a</tspan><tspan class="cls-20" x="519.73" y="0">s</tspan><tspan class="cls-16" x="540.31" y="0">t</tspan><tspan class="cls-15" x="554.03" y="0">i</tspan><tspan class="cls-21" x="564.32" y="0">c</tspan><tspan class="cls-17" x="584.91" y="0"> </tspan><tspan class="cls-27" x="595.2" y="0">S</tspan><tspan class="cls-28" x="619.21" y="0">u</tspan><tspan class="cls-29" x="641.51" y="0">pp</tspan><tspan class="cls-15" x="686.11" y="0">l</tspan><tspan class="cls-30" x="696.4" y="0">y</tspan></text><line class="cls-4" x1="261.5" y1="261" x2="261.5" y2="320.81"/><line class="cls-4" x1="261.5" y1="320.81" x2="261.5" y2="378.19"/><line class="cls-4" x1="252" y1="290.11" x2="261" y2="290.11"/><line class="cls-4" x1="261" y1="379" x2="270" y2="379"/><line class="cls-4" x1="261" y1="261" x2="270" y2="261"/><text class="cls-12" transform="translate(220 293.99) scale(0.58)"><tspan class="cls-31">T</tspan><tspan x="13" y="0">ax</tspan></text><line class="cls-4" x1="248.5" y1="867" x2="248.5" y2="926.81"/><line class="cls-4" x1="248.5" y1="926.81" x2="248.5" y2="984.19"/><line class="cls-4" x1="239" y1="896.11" x2="248" y2="896.11"/><line class="cls-4" x1="248" y1="985" x2="257" y2="985"/><line class="cls-4" x1="248" y1="867" x2="257" y2="867"/><text class="cls-12" transform="translate(207 899.99) scale(0.58)"><tspan class="cls-31">T</tspan><tspan x="13" y="0">ax</tspan></text><line class="cls-4" x1="254.5" y1="1571" x2="254.5" y2="1630.81"/><line class="cls-4" x1="254.5" y1="1630.81" x2="254.5" y2="1688.19"/><line class="cls-4" x1="245" y1="1600.11" x2="254" y2="1600.11"/><line class="cls-4" x1="254" y1="1689" x2="263" y2="1689"/><line class="cls-4" x1="254" y1="1571" x2="263" y2="1571"/><text class="cls-12" transform="translate(213 1603.99) scale(0.58)"><tspan class="cls-31">T</tspan><tspan x="13" y="0">ax</tspan></text><text class="cls-32" transform="translate(88.29 628.66) scale(0.93 1)">Q<tspan class="cls-33" x="25.73" y="0">u</tspan><tspan class="cls-34" x="47.17" y="0">a</tspan><tspan class="cls-33" x="67.54" y="0">n</tspan><tspan class="cls-35" x="88.98" y="0">t</tspan><tspan class="cls-36" x="102.91" y="0">i</tspan><tspan class="cls-35" x="113.64" y="0">t</tspan><tspan class="cls-37" x="127.57" y="0">y</tspan></text><text class="cls-38" transform="matrix(0.01, -0.99, 1, 0.01, 46.75, 568.61)">P<tspan class="cls-39" x="22.27" y="0">r</tspan><tspan class="cls-40" x="37.45" y="0">i</tspan><tspan class="cls-41" x="47.57" y="0">c</tspan><tspan class="cls-42" x="64.78" y="0">e</tspan></text><rect class="cls-43" x="11.45" y="11" width="32" height="32"/><text class="cls-44" transform="translate(19.07 36.5) scale(1.1 1)">1</text><rect class="cls-1" y="684" width="716" height="647" rx="20" ry="20"/><line class="Supply" x1="56.5" y1="1285.5" x2="395.5" y2="772.5"/><line class="cls-2" x1="55.5" y1="956.5" x2="57.5" y2="956.5"/><line class="cls-3" x1="61.56" y1="956.5" x2="270.47" y2="956.5"/><line class="cls-2" x1="272.5" y1="956.5" x2="274.5" y2="956.5"/><line class="Demand" x1="57" y1="728" x2="607.5" y2="1005.5"/><line class="cls-6" x1="56" y1="838.5" x2="58" y2="838.5"/><line class="cls-7" x1="62.05" y1="838.5" x2="270.48" y2="838.5"/><line class="cls-6" x1="272.5" y1="838.5" x2="274.5" y2="838.5"/><line class="cls-8" x1="273.5" y1="837.5" x2="273.5" y2="958.5"/><line class="cls-45" x1="55.55" y1="1284.72" x2="55.55" y2="699.55"/><path class="cls-10" d="M55.55,694.7a24.28,24.28,0,0,0,3.82,6.87l-3.82-1.38-3.82,1.38A24.26,24.26,0,0,0,55.55,694.7Z"/><line class="cls-9" x1="56.29" y1="1284.72" x2="695.17" y2="1284.72"/><path class="cls-10" d="M701.2,1284.72a30.22,30.22,0,0,0-8.55,4.76l1.72-4.76-1.72-4.75A30.2,30.2,0,0,0,701.2,1284.72Z"/><line class="cls-4" x1="55.5" y1="867.49" x2="57.5" y2="867.49"/><line class="cls-46" x1="61.44" y1="867.49" x2="327.54" y2="867.49"/><line class="cls-4" x1="329.51" y1="867.49" x2="331.51" y2="867.49"/><ellipse class="cls-11" cx="333.01" cy="867" rx="1.99" ry="1.98"/><circle class="cls-11" cx="274" cy="956" r="2"/><circle class="cls-11" cx="274" cy="838" r="2"/><text class="cls-12" transform="translate(20 840.33)">P</text><text class="cls-12" transform="translate(35.14 848.33) scale(0.58)">b</text><text class="cls-12" transform="translate(20 958.33)">P</text><text class="cls-12" transform="translate(35.14 966.33) scale(0.58)">s</text><text class="cls-12" transform="translate(20 869.33)">P</text><text class="cls-12" transform="translate(35.14 877.33) scale(0.58)">m</text><text class="cls-47" transform="translate(187 713.51) scale(0.58)">E<tspan class="cls-15" x="22.3" y="0">l</tspan><tspan class="cls-19" x="32.59" y="0">a</tspan><tspan class="cls-20" x="54.89" y="0">s</tspan><tspan class="cls-16" x="75.47" y="0">t</tspan><tspan class="cls-15" x="89.19" y="0">i</tspan><tspan class="cls-21" x="99.49" y="0">c</tspan><tspan class="cls-17" x="120.07" y="0"> </tspan><tspan class="cls-22" x="130.36" y="0">D</tspan><tspan class="cls-23" x="156.09" y="0">e</tspan><tspan class="cls-24" x="178.39" y="0">m</tspan><tspan class="cls-19" x="212.69" y="0">a</tspan><tspan class="cls-14" x="234.99" y="0">n</tspan><tspan class="cls-25" x="257.29" y="0">d</tspan><tspan class="cls-26" x="279.59" y="0">,</tspan><tspan class="cls-17" x="289.88" y="0"> </tspan><tspan class="cls-48" x="300.17" y="0">I</tspan><tspan class="cls-14" x="312.18" y="0">n</tspan><tspan class="cls-23" x="334.48" y="0">e</tspan><tspan class="cls-15" x="356.78" y="0">l</tspan><tspan class="cls-19" x="367.07" y="0">a</tspan><tspan class="cls-20" x="389.37" y="0">s</tspan><tspan class="cls-16" x="409.95" y="0">t</tspan><tspan class="cls-15" x="423.67" y="0">i</tspan><tspan class="cls-21" x="433.96" y="0">c</tspan><tspan class="cls-17" x="454.55" y="0"> </tspan><tspan class="cls-27" x="464.84" y="0">S</tspan><tspan class="cls-28" x="488.85" y="0">u</tspan><tspan class="cls-29" x="511.15" y="0">pp</tspan><tspan class="cls-15" x="555.75" y="0">l</tspan><tspan class="cls-30" x="566.04" y="0">y</tspan></text><text class="cls-32" transform="translate(88.29 1312.66) scale(0.93 1)">Q<tspan class="cls-33" x="25.73" y="0">u</tspan><tspan class="cls-34" x="47.17" y="0">a</tspan><tspan class="cls-33" x="67.54" y="0">n</tspan><tspan class="cls-35" x="88.98" y="0">t</tspan><tspan class="cls-36" x="102.91" y="0">i</tspan><tspan class="cls-35" x="113.64" y="0">t</tspan><tspan class="cls-37" x="127.57" y="0">y</tspan></text><text class="cls-38" transform="matrix(0.01, -0.99, 1, 0.01, 46.75, 1252.61)">P<tspan class="cls-39" x="22.27" y="0">r</tspan><tspan class="cls-40" x="37.45" y="0">i</tspan><tspan class="cls-41" x="47.57" y="0">c</tspan><tspan class="cls-42" x="64.78" y="0">e</tspan></text><rect class="cls-43" x="10.45" y="695" width="32" height="32"/><text class="cls-44" transform="translate(19.07 720.5) scale(1.1 1)">2</text><rect class="cls-1" y="1358" width="716" height="647" rx="20" ry="20"/><line class="Supply" x1="55" y1="1958" x2="626.5" y2="1585.5"/><line class="cls-2" x1="55.5" y1="1814.5" x2="57.5" y2="1814.5"/><line class="cls-3" x1="61.56" y1="1814.5" x2="270.47" y2="1814.5"/><line class="cls-2" x1="272.5" y1="1814.5" x2="274.5" y2="1814.5"/><line class="Demand" x1="226.5" y1="1421.5" x2="448.5" y2="1951.5"/><line class="cls-4" x1="55.5" y1="1754.5" x2="57.5" y2="1754.5"/><line class="cls-49" x1="61.54" y1="1754.5" x2="358.11" y2="1754.5"/><line class="cls-4" x1="360.13" y1="1754.5" x2="362.13" y2="1754.5"/><line class="cls-45" x1="55.55" y1="1958.72" x2="55.55" y2="1373.55"/><path class="cls-10" d="M55.55,1368.7a24.28,24.28,0,0,0,3.82,6.87l-3.82-1.38-3.82,1.38A24.26,24.26,0,0,0,55.55,1368.7Z"/><line class="cls-9" x1="56.29" y1="1958.72" x2="695.17" y2="1958.72"/><path class="cls-10" d="M701.2,1958.72a30.22,30.22,0,0,0-8.55,4.76l1.72-4.76-1.72-4.75A30.2,30.2,0,0,0,701.2,1958.72Z"/><ellipse class="cls-11" cx="365.79" cy="1754" rx="2.21" ry="1.99"/><circle class="cls-11" cx="274" cy="1814" r="2"/><line class="cls-6" x1="55.5" y1="1539.26" x2="57.5" y2="1539.26"/><line class="cls-50" x1="61.57" y1="1539.26" x2="270.97" y2="1539.26"/><line class="cls-6" x1="273" y1="1539.26" x2="275" y2="1539.26"/><line class="cls-8" x1="274.74" y1="1537.5" x2="274.74" y2="1814.5"/><ellipse class="cls-11" cx="275.39" cy="1539" rx="2.61" ry="2"/><text class="cls-51" transform="translate(20 1540.72)">P</text><text class="cls-52" transform="translate(32.07 1547.1) scale(0.58)">b</text><text class="cls-12" transform="translate(20 1816.33)">P</text><text class="cls-12" transform="translate(35.14 1824.33) scale(0.58)">s</text><text class="cls-12" transform="translate(20 1756.33)">P</text><text class="cls-12" transform="translate(35.14 1764.33) scale(0.58)">m</text><text class="cls-53" transform="translate(187 1388.51) scale(0.58)">I<tspan class="cls-14" x="12.01" y="0">n</tspan><tspan class="cls-23" x="34.31" y="0">e</tspan><tspan class="cls-15" x="56.6" y="0">l</tspan><tspan class="cls-19" x="66.9" y="0">a</tspan><tspan class="cls-20" x="89.19" y="0">s</tspan><tspan class="cls-16" x="109.78" y="0">t</tspan><tspan class="cls-15" x="123.5" y="0">i</tspan><tspan class="cls-21" x="133.79" y="0">c</tspan><tspan class="cls-17" x="154.37" y="0"> </tspan><tspan class="cls-22" x="164.67" y="0">D</tspan><tspan class="cls-23" x="190.39" y="0">e</tspan><tspan class="cls-24" x="212.69" y="0">m</tspan><tspan class="cls-19" x="247" y="0">a</tspan><tspan class="cls-14" x="269.3" y="0">n</tspan><tspan class="cls-25" x="291.6" y="0">d</tspan><tspan class="cls-26" x="313.89" y="0">,</tspan><tspan class="cls-17" x="324.19" y="0"> </tspan><tspan class="cls-18" x="334.48" y="0">E</tspan><tspan class="cls-15" x="356.78" y="0">l</tspan><tspan class="cls-19" x="367.07" y="0">a</tspan><tspan class="cls-20" x="389.37" y="0">s</tspan><tspan class="cls-16" x="409.95" y="0">t</tspan><tspan class="cls-15" x="423.67" y="0">i</tspan><tspan class="cls-21" x="433.96" y="0">c</tspan><tspan class="cls-17" x="454.55" y="0"> </tspan><tspan class="cls-27" x="464.84" y="0">S</tspan><tspan class="cls-28" x="488.85" y="0">u</tspan><tspan class="cls-29" x="511.15" y="0">pp</tspan><tspan class="cls-15" x="555.75" y="0">l</tspan><tspan class="cls-30" x="566.04" y="0">y</tspan></text><text class="cls-32" transform="translate(88.29 1986.66) scale(0.93 1)">Q<tspan class="cls-33" x="25.73" y="0">u</tspan><tspan class="cls-34" x="47.17" y="0">a</tspan><tspan class="cls-33" x="67.54" y="0">n</tspan><tspan class="cls-35" x="88.98" y="0">t</tspan><tspan class="cls-36" x="102.91" y="0">i</tspan><tspan class="cls-35" x="113.64" y="0">t</tspan><tspan class="cls-37" x="127.57" y="0">y</tspan></text><text class="cls-38" transform="matrix(0.01, -0.99, 1, 0.01, 46.75, 1926.61)">P<tspan class="cls-39" x="22.27" y="0">r</tspan><tspan class="cls-40" x="37.45" y="0">i</tspan><tspan class="cls-41" x="47.57" y="0">c</tspan><tspan class="cls-42" x="64.78" y="0">e</tspan></text><rect class="cls-43" x="10.5" y="1368.6" width="32" height="32"/><text class="cls-44" transform="translate(19.07 1394.5) scale(1.1 1)">3</text><text class="cls-54" transform="translate(239.1 110.99) scale(0.58)">Buyers’<tspan x="-31.6" y="74.1">Equilibrium</tspan><tspan x="17.38" y="148.2">Price</tspan></text><text class="cls-54" transform="translate(239.5 459.99) scale(0.58)">Sellers’<tspan x="-32.29" y="74.1">Equilibrium</tspan><tspan x="16.68" y="148.2">Price</tspan></text><text class="cls-54" transform="translate(382 328.99) scale(0.58)">Market Equilibrium without<tspan class="cls-55" x="429.1" y="0"> </tspan><tspan class="cls-56" x="437.31" y="0">T</tspan><tspan x="456.8" y="0">ax</tspan></text><line class="cls-4" x1="273" y1="242.44" x2="273" y2="208"/><path d="M273,242a7.38,7.38,0,0,0-4.54-1.58A13.63,13.63,0,0,1,273,246a14.37,14.37,0,0,1,4.54-5.55A7.64,7.64,0,0,0,273,242Z"/><line class="cls-4" x1="272.5" y1="435" x2="272.5" y2="402.97"/><polygon points="276.2 405.78 272.5 404.2 268.8 405.78 272.5 397 276.2 405.78"/><line class="cls-4" x1="371.5" y1="321" x2="353.47" y2="321"/><polygon points="356.28 317.3 354.7 321 356.28 324.7 347.5 321 356.28 317.3"/><line class="cls-4" x1="260.5" y1="867.5" x2="260.5" y2="897.81"/><line class="cls-4" x1="260.5" y1="897.81" x2="260.5" y2="955.19"/><line class="cls-4" x1="251" y1="910.11" x2="260" y2="910.11"/><line class="cls-4" x1="260" y1="956" x2="269" y2="956"/><line class="cls-4" x1="260" y1="868" x2="269" y2="868"/><line class="cls-4" x1="262.5" y1="1539.5" x2="262.5" y2="1669.81"/><line class="cls-4" x1="253" y1="1639.11" x2="262" y2="1639.11"/><line class="cls-4" x1="262.5" y1="1669.81" x2="262.5" y2="1752.83"/><line class="cls-4" x1="262" y1="1754" x2="271" y2="1754"/><line class="cls-4" x1="262" y1="1540" x2="271" y2="1540"/><text class="cls-12" transform="translate(76 1642.99) scale(0.58)">Buyers’<tspan class="cls-55" x="77.53" y="0"> </tspan><tspan class="cls-31" x="83" y="0">T</tspan><tspan x="96" y="0">ax Incidence</tspan></text><text class="cls-12" transform="translate(76 913.99) scale(0.58)">Sellers’<tspan class="cls-55" x="76.61" y="0"> </tspan><tspan class="cls-31" x="82.08" y="0">T</tspan><tspan x="95.07" y="0">ax Incidence</tspan></text><text class="cls-57" transform="translate(205.69 741)">Sellers suffer greater tax burden.</text><text class="cls-57" transform="translate(160.51 63)">Buyers and Sellers share equal tax burden.</text><text class="cls-57" transform="translate(205.29 1413)">Buyers suffer greater tax burden.</text></svg>